<svg xmlns="http://www.w3.org/2000/svg" version="1.1" xml:space="preserve" viewBox="0 7.79 512 496.43"><g fill="#E0B394">	<path d="m126.97 246.71c-13.984-0.62-25.115-12.157-25.115-26.288 0-14.525 11.774-26.31 26.31-26.31 1.308 0 2.594 0.09 3.857 0.282"></path>	<path d="m362.47 246.71c13.984-0.62 25.126-12.157 25.126-26.288 0-14.525-11.785-26.31-26.322-26.31-1.308 0-2.605 0.102-3.857 0.282"></path></g><path d="m297.91 332.09h-106.36c-38.52 0-69.747 31.226-69.747 69.747v102.38h245.85v-102.38c0-38.52-31.226-69.747-69.745-69.747z" fill="#E6E6E6"></path><path d="m234.52 332.09h-42.974c-38.52 0-69.747 31.226-69.747 69.747v102.38h42.974v-102.38c1e-3 -38.52 31.228-69.747 69.747-69.747z" fill="#ccc"></path><path d="m294.5 307.85v63.533c0 27.482-22.282 49.764-49.764 49.764-27.49 0-49.764-22.282-49.764-49.764v-63.533h99.528z" fill="#E0B394"></path><path d="m329.08 316.85-46.294 33.641c-22.69 16.488-53.422 16.488-76.123 0l-46.294-33.641c-24.461-17.773-37.701-47.163-34.791-77.262l4.094-42.347 3.936-40.746c5.537-57.222 53.625-100.89 111.12-100.89 28.746 0 55.147 10.917 75.052 28.983 19.894 18.067 33.303 43.294 36.066 71.906l3.767 38.964 4.263 44.129c2.907 30.099-10.333 59.489-34.794 77.262z" fill="#F7CBA4"></path><g fill="#E0B394">	<path d="m154.39 255.97c-0.778 13.161 3.507 26.107 11.988 36.201l48.384 59.455c2.526 3.011 5.391 5.537 8.492 7.556-5.819-2.03-11.413-4.94-16.589-8.695l-46.294-33.63c-24.461-17.773-37.69-47.163-34.78-77.262l8.018-83.093c5.481-56.67 52.689-100.04 109.45-100.87-34.96 0.846-74.548 33.799-76.612 68.894l-12.055 131.44z"></path>	<path d="m359.61 195.46c-54.392-78.131-85.202-36.088-116.01-36.088-7.533 0-14.48-1.015-20.807-2.684-29.649-7.804-45.73-30.021-45.73-30.021 0 29.322-46.148 73.529-46.148 73.529-0.429-0.992-0.846-1.985-1.241-2.955l3.936-40.746c5.537-57.222 53.625-100.89 111.12-100.89 28.746 0 55.147 10.917 75.052 28.983 19.894 18.067 33.303 43.294 36.066 71.906l3.766 38.965z"></path></g><path d="m369.91 195.46c-60.899-99.242-93.604-51.877-126.31-51.877-7.533 0-14.48-1.015-20.807-2.684-29.649-7.804-45.73-30.021-45.73-30.021 0 29.322-46.148 73.53-46.148 73.53-54.042-126.08 59.523-142.39 59.523-142.39 8.921-20.356 36.99-35.479 71.094-34.148 12.247 0.462 25.262 3.045 38.456 8.278 119.54 47.365 69.92 179.31 69.92 179.31z" fill="#AF7C38"></path><path d="m222.79 140.9c-29.649-7.804-45.73-30.021-45.73-30.021 0 29.322-46.148 73.53-46.148 73.53-54.042-126.08 59.523-142.39 59.523-142.39 8.921-20.356 36.99-35.479 71.094-34.148-1.827 0.71-74.139 29.603-38.739 133.03z" fill="#9B6C34"></path><path d="m460.07 397.18h-98.627c-23.046 0-41.727 18.681-41.727 41.727s18.681 41.727 41.727 41.727c16.581 0 30.904-9.673 37.633-23.683h23.36c6.73 14.01 21.052 23.683 37.633 23.683 23.046 0 41.727-18.681 41.727-41.727 1e-3 -23.044-18.681-41.727-41.726-41.727z" fill="#F95428"></path><path d="m374.98 430.44h-6.203v-6.203c0-4.671-3.786-8.458-8.458-8.458s-8.458 3.787-8.458 8.458v6.203h-6.203c-4.672 0-8.458 3.787-8.458 8.458s3.786 8.458 8.458 8.458h6.203v6.203c0 4.671 3.786 8.458 8.458 8.458s8.458-3.787 8.458-8.458v-6.203h6.203c4.672 0 8.458-3.787 8.458-8.458s-3.787-8.458-8.458-8.458z" fill="#fff"></path><path d="m49.996 308.44-43.381-43.38c23.958-23.958 62.802-23.958 86.761 0s23.958 62.802 0 86.761-62.802 23.958-86.761 0l43.381-43.381z" fill="#F9C573"></path><path d="m449.97 185.72c34.257 0 62.026 27.77 62.026 62.026v72.386c0 4.632-3.569 8.67-8.199 8.809-4.791 0.143-8.718-3.697-8.718-8.455v-5.827c0-5.19-4.208-9.398-9.398-9.398h-1e-3c-5.19 0-9.398 4.208-9.398 9.398v5.473c0 4.632-3.569 8.67-8.199 8.809-4.791 0.143-8.718-3.697-8.718-8.455v-5.827c0-5.19-4.208-9.398-9.398-9.398h-1e-3c-5.19 0-9.398 4.208-9.398 9.398v5.473c0 4.632-3.569 8.67-8.199 8.809-4.791 0.143-8.718-3.697-8.718-8.455v-5.827c0-5.19-4.208-9.398-9.398-9.398s-9.397 4.208-9.397 9.398v5.473c0 4.632-3.569 8.67-8.199 8.809-4.791 0.143-8.718-3.697-8.718-8.455v-72.74c4e-3 -34.256 27.774-62.026 62.031-62.026z" fill="#71C5F4"></path><path d="m435.53 196.17c4.597-1.285 9.437-1.987 14.444-1.987 29.585 0 53.568 23.983 53.568 53.568v34.613c0 7.978-6.467 14.444-14.444 14.444-7.978 0-14.444-6.467-14.444-14.444v-34.613c0-24.577-16.559-45.275-39.124-51.581z" fill="#85D6F9"></path><g fill="#666">	<circle cx="425.73" cy="256.2" r="8.458"></circle>	<circle cx="474.22" cy="256.2" r="8.458"></circle></g><path d="m288.88 277.78s-0.643 1.579-1.996 4.071c-0.327 0.643-0.71 1.319-1.139 2.053-0.508 0.722-1.094 1.455-1.725 2.278-0.632 0.823-1.353 1.658-2.12 2.583-0.271 0.35-0.564 0.643-0.88 0.947-0.113 0.113-0.237 0.226-0.361 0.338-0.44 0.406-0.891 0.835-1.353 1.263-0.925 0.868-1.928 1.725-2.977 2.628-1.105 0.812-2.289 1.579-3.507 2.413-0.609 0.417-1.241 0.823-1.883 1.229-0.643 0.383-1.331 0.699-2.03 1.049-1.376 0.699-2.808 1.376-4.285 2.053-3.045 1.038-6.214 2.255-9.597 2.763-3.338 0.778-6.823 0.902-10.296 1.071-3.473-0.169-6.958-0.282-10.296-1.06-3.383-0.508-6.552-1.725-9.597-2.763-1.477-0.665-2.91-1.342-4.297-2.041-0.688-0.35-1.376-0.665-2.03-1.049-0.632-0.417-1.263-0.812-1.872-1.229-1.218-0.835-2.413-1.613-3.519-2.413-1.049-0.902-2.041-1.771-2.977-2.628-0.462-0.44-0.902-0.857-1.342-1.274-0.158-0.147-0.316-0.293-0.474-0.44-0.271-0.271-0.53-0.53-0.756-0.835-0.733-0.891-1.444-1.714-2.064-2.526-0.609-0.823-1.207-1.545-1.703-2.267-0.451-0.767-0.868-1.466-1.218-2.109-1.41-2.571-1.996-4.105-1.996-4.105s1.669 0.507 4.24 1.545c0.654 0.248 1.331 0.553 2.086 0.857 0.801 0.237 1.624 0.541 2.504 0.835 0.891 0.293 1.782 0.654 2.729 0.992 0.936 0.361 1.996 0.598 3.045 0.913 1.049 0.305 2.098 0.677 3.192 1.004 1.139 0.248 2.278 0.541 3.451 0.823 0.586 0.135 1.162 0.305 1.748 0.462 0.598 0.135 1.218 0.214 1.827 0.338 1.229 0.214 2.458 0.462 3.688 0.744 2.56 0.237 5.086 0.801 7.725 0.902 2.605 0.338 5.267 0.248 7.906 0.406 2.65-0.158 5.312-0.056 7.917-0.395 2.639-0.09 5.165-0.665 7.725-0.902 1.229-0.271 2.458-0.519 3.688-0.733 0.609-0.124 1.229-0.203 1.827-0.338 0.586-0.169 1.173-0.327 1.748-0.462 1.173-0.282 2.312-0.586 3.451-0.823 1.105-0.327 2.154-0.699 3.203-1.004 1.038-0.316 2.12-0.564 3.022-0.913 0.925-0.316 1.793-0.665 2.673-0.936 0.868-0.293 1.68-0.586 2.481-0.823 0.789-0.338 1.489-0.665 2.154-0.925 2.625-1.093 4.26-1.567 4.26-1.567z" fill="#F2F2F2"></path><g fill="#4D4D4D">	<path d="m281.02 289.71c-0.113 0.113-0.237 0.226-0.361 0.338-0.44 0.406-0.891 0.835-1.353 1.263-0.925 0.868-1.928 1.725-2.977 2.628-1.105 0.812-2.289 1.579-3.507 2.413-0.609 0.417-1.241 0.823-1.883 1.229-0.643 0.383-1.331 0.699-2.03 1.049-1.376 0.699-2.808 1.376-4.285 2.053-3.045 1.038-6.214 2.255-9.597 2.763-3.338 0.778-6.823 0.902-10.296 1.071-3.473-0.169-6.958-0.282-10.296-1.06-3.383-0.508-6.552-1.725-9.597-2.763-1.477-0.665-2.91-1.342-4.297-2.041-0.688-0.35-1.376-0.665-2.03-1.049-0.632-0.417-1.263-0.812-1.872-1.229-1.218-0.835-2.413-1.613-3.519-2.413-1.049-0.902-2.041-1.771-2.977-2.628-0.462-0.44-0.902-0.857-1.342-1.274-0.158-0.147-0.316-0.293-0.474-0.44 0.361 0.124 0.722 0.248 1.094 0.372 0.891 0.293 1.782 0.643 2.729 0.981 0.936 0.372 1.996 0.609 3.045 0.925 1.049 0.304 2.098 0.665 3.192 1.004 1.139 0.237 2.278 0.541 3.451 0.823 0.586 0.135 1.162 0.293 1.748 0.451 0.598 0.135 1.218 0.214 1.827 0.338 1.229 0.214 2.458 0.474 3.688 0.744 2.56 0.248 5.086 0.812 7.725 0.902 2.605 0.35 5.267 0.248 7.906 0.417 2.65-0.158 5.312-0.056 7.917-0.406 2.639-0.09 5.165-0.654 7.725-0.891 1.229-0.271 2.458-0.53 3.688-0.744 0.609-0.124 1.229-0.203 1.827-0.338 0.586-0.158 1.173-0.316 1.748-0.451 1.173-0.282 2.312-0.586 3.451-0.823 1.105-0.338 2.154-0.71 3.203-1.004 1.038-0.316 2.12-0.575 3.022-0.913 0.925-0.327 1.793-0.665 2.673-0.947 0.346-0.113 0.695-0.237 1.034-0.35z"></path>	<path d="m194.52 240c-4.671 0-8.458-3.787-8.458-8.458v-13.529c0-4.671 3.787-8.458 8.458-8.458s8.458 3.787 8.458 8.458v13.529c0 4.671-3.787 8.458-8.458 8.458z"></path></g><g fill="#666">	<path d="m275.59 191.51s0.023-0.224 0.098-0.61c0.087-0.373 0.175-0.963 0.364-1.631 0.085-0.345 0.194-0.705 0.319-1.101 0.164-0.401 0.383-0.805 0.617-1.263 0.231-0.46 0.523-0.915 0.83-1.425 0.309-0.519 0.678-0.912 1.056-1.413 0.383-0.482 0.815-0.947 1.266-1.448 0.477-0.452 0.995-0.898 1.545-1.345 1.077-0.948 2.393-1.634 3.764-2.396 1.419-0.6 2.924-1.251 4.537-1.552 1.597-0.415 3.272-0.513 4.942-0.591 1.67 0.077 3.346 0.166 4.944 0.579 1.614 0.298 3.12 0.952 4.54 1.547 1.372 0.761 2.69 1.446 3.768 2.395 0.549 0.449 1.068 0.895 1.546 1.345 0.451 0.502 0.881 0.972 1.266 1.45 0.372 0.498 0.759 0.908 1.042 1.406 0.284 0.496 0.559 0.941 0.783 1.391 0.222 0.451 0.438 0.848 0.6 1.248 0.148 0.417 0.279 0.795 0.376 1.153 0.214 0.691 0.303 1.286 0.386 1.658 0.072 0.385 0.088 0.603 0.088 0.603s-0.233-6e-3 -0.628-0.044c-0.383-0.05-0.979-0.074-1.636-0.17-0.341-0.035-0.688-0.098-1.07-0.149-0.407-0.019-0.809-0.076-1.245-0.109-0.856-0.09-1.749-0.224-2.731-0.263-0.483-0.032-0.951-0.101-1.44-0.142-0.506-7e-3 -1.006-0.033-1.502-0.07-0.972-0.126-2.029-0.052-3.01-0.175-1.032 0.037-2.02-0.089-3.043-0.058-1.006-0.076-2.023 5e-3 -3.033-0.067-1.009 0.069-2.027-0.019-3.035 0.054-1.024-0.036-2.012 0.095-3.046 0.053-0.982 0.122-2.041 0.046-3.013 0.174-0.496 0.037-0.996 0.064-1.503 0.07-0.489 0.041-0.955 0.115-1.44 0.144-1.001 0.054-1.834 0.149-2.669 0.221-0.439 0.034-0.849 0.065-1.229 0.094-0.405 0.073-0.775 0.154-1.127 0.201-0.682 0.121-1.279 0.149-1.658 0.197-0.394 0.038-0.619 0.039-0.619 0.039z"></path>	<path d="m175.18 191.51s0.023-0.224 0.098-0.61c0.087-0.373 0.175-0.963 0.364-1.631 0.085-0.345 0.194-0.705 0.319-1.101 0.164-0.401 0.383-0.805 0.617-1.263 0.231-0.46 0.523-0.915 0.83-1.425 0.309-0.519 0.678-0.912 1.056-1.413 0.383-0.482 0.815-0.947 1.266-1.448 0.477-0.452 0.995-0.898 1.545-1.345 1.077-0.948 2.393-1.634 3.764-2.396 1.419-0.6 2.924-1.251 4.537-1.552 1.597-0.415 3.272-0.513 4.942-0.591 1.67 0.077 3.346 0.166 4.944 0.579 1.614 0.298 3.12 0.952 4.54 1.547 1.372 0.761 2.69 1.446 3.768 2.395 0.549 0.449 1.068 0.895 1.546 1.345 0.451 0.502 0.881 0.972 1.266 1.45 0.372 0.498 0.759 0.908 1.042 1.406 0.284 0.496 0.559 0.941 0.783 1.391 0.222 0.451 0.438 0.848 0.6 1.248 0.148 0.417 0.279 0.795 0.376 1.153 0.214 0.691 0.303 1.286 0.386 1.658 0.072 0.385 0.088 0.603 0.088 0.603s-0.233-6e-3 -0.628-0.044c-0.383-0.05-0.979-0.074-1.636-0.17-0.341-0.035-0.688-0.098-1.07-0.149-0.407-0.019-0.809-0.076-1.245-0.109-0.856-0.09-1.749-0.224-2.731-0.263-0.483-0.032-0.951-0.101-1.44-0.142-0.506-7e-3 -1.006-0.033-1.502-0.07-0.972-0.126-2.029-0.052-3.01-0.175-1.032 0.037-2.02-0.089-3.043-0.058-1.006-0.076-2.023 5e-3 -3.033-0.067-1.009 0.069-2.027-0.019-3.035 0.054-1.024-0.036-2.012 0.095-3.046 0.053-0.982 0.122-2.041 0.046-3.013 0.174-0.496 0.037-0.996 0.064-1.503 0.07-0.489 0.041-0.955 0.115-1.44 0.144-1.001 0.054-1.834 0.149-2.669 0.221-0.439 0.034-0.849 0.065-1.229 0.094-0.405 0.073-0.775 0.154-1.127 0.201-0.682 0.121-1.279 0.149-1.658 0.197-0.392 0.038-0.619 0.039-0.619 0.039z"></path></g><path d="m294.93 240c-4.671 0-8.458-3.787-8.458-8.458v-13.529c0-4.671 3.787-8.458 8.458-8.458s8.458 3.787 8.458 8.458v13.529c0 4.671-3.787 8.458-8.458 8.458z" fill="#4D4D4D"></path><path d="m257.7 205.61v40.035c0 7.162-5.807 12.969-12.969 12.969s-12.969-5.807-12.969-12.969v-40.035" fill="#E0B394"></path><g fill="#fff">	<circle cx="460.12" cy="452.43" r="8.458"></circle>	<circle cx="474.78" cy="437.77" r="8.458"></circle>	<circle cx="445.46" cy="437.77" r="8.458"></circle>	<circle cx="460.12" cy="423.11" r="8.458"></circle></g><circle cx="8.458" cy="308.44" r="8.458" fill="#71C5F4"></circle><circle cx="67" cy="281.12" r="8.458" fill="#666"></circle></svg>
